<?xml version="1.0" encoding="UTF-8"?>
<svg id="Layer_2" data-name="Layer 2" xmlns="http://www.w3.org/2000/svg" viewBox="0 0 1423.46 279.76">
  <defs>
    <style>
      .cls-1 {
        fill: #122b40;
      }

      .cls-2 {
        fill: #71a0bf;
      }

      .cls-3 {
        fill: #f05f2c;
      }
    </style>
  </defs>
  <g id="Layer_1-2" data-name="Layer 1">
    <g>
      <g>
        <polygon class="cls-1" points="169.46 85.32 175.37 47.3 22.44 47.3 21.99 50.22 0 191.7 48.61 191.7 56.05 143.87 155.01 143.87 160.91 105.86 61.95 105.86 65.14 85.32 169.46 85.32"/>
        <polygon class="cls-1" points="241.55 47.3 192.73 47.3 192.28 50.22 170.29 191.7 313.74 191.7 320.09 150.8 225.46 150.8 241.55 47.3"/>
        <polygon class="cls-1" points="500.77 85.32 506.68 47.3 502.66 47.3 347.36 47.3 324.91 191.7 485.68 191.7 491.59 153.69 379.02 153.69 381.73 136.24 486.46 136.24 491.76 102.14 387.03 102.14 389.65 85.32 500.77 85.32"/>
      </g>
      <g>
        <polygon class="cls-1" points="910.32 47.3 739.04 47.3 732.68 88.2 793.91 88.2 777.83 191.7 826.65 191.7 842.73 88.2 903.96 88.2 910.32 47.3"/>
        <polygon class="cls-1" points="925.57 50.22 903.59 191.7 952.4 191.7 974.84 47.3 926.03 47.3 925.57 50.22"/>
        <polygon class="cls-1" points="1105.93 134.86 1071.51 47.3 999.83 47.3 999.38 50.22 977.39 191.7 1024.8 191.7 1038.69 95.09 1078.27 191.7 1115.72 191.7 1185.56 96.05 1168.84 191.7 1216.71 191.7 1239.15 47.3 1167.37 47.3 1105.93 134.86"/>
        <polygon class="cls-1" points="1417.55 85.32 1423.46 47.3 1419.44 47.3 1264.14 47.3 1241.7 191.7 1402.46 191.7 1408.37 153.69 1295.81 153.69 1298.52 136.24 1403.25 136.24 1408.55 102.14 1303.82 102.14 1306.43 85.32 1417.55 85.32"/>
      </g>
      <path class="cls-2" d="M791.72,260.22c-.46,4.09-.16,5.06,1.84,5.86,1.25.53,6.26.89,11.94.89,20.87,0,23.46-.62,24.22-5.51.37-2.4-.51-4.17-2.28-4.8q-1.86-.62-11.17-.71h-16.34c-10.93,0-15.36-.62-18.87-2.58-3.92-2.22-5.14-6.93-3.88-15.01,1.66-10.66,5.38-15.19,14.22-17.23,4.99-1.24,11.99-1.69,24.96-1.69,20.78,0,25.5.53,29.33,3.29,3.66,2.75,4.42,6.4,3.04,15.28h-17.59c.8-5.15-.87-5.86-12.5-5.86-5.77,0-13.53.18-16.4.36-4.85.36-6.64,1.6-7.17,4.97-.39,2.49.61,4.09,3.09,4.71,1.02.27,1.37.36,7.21.44h16.79c1.6,0,9.55.27,12.54.44,11.2.53,14.87,5.51,13.02,17.41-1.7,10.92-5.64,15.72-14.64,17.59-4.59.98-13.47,1.51-26.35,1.51-20.52,0-24.98-.44-29.8-3.11-3.37-1.78-4.53-6.31-3.44-13.32.08-.53.26-1.69.54-2.93h17.68Z"/>
      <polygon class="cls-2" points="917.84 234.55 891.46 234.55 893.74 219.89 964.53 219.89 962.26 234.55 935.88 234.55 928.95 279.14 910.91 279.14 917.84 234.55"/>
      <path class="cls-2" d="M1024.23,219.89l-4,25.76-.55,3.55c-1.01,6.48-1.04,6.66-1.02,8.26-.15,6.66,2.58,7.99,16.08,7.99s17.29-.36,19.77-2.04c1.98-1.33,3.27-3.91,4.06-8.44q.3-1.33,1.32-7.91l4.22-27.18h18.03l-4.83,31.09c-2.1,14.66-4.02,19.01-9.99,23.72-4.77,3.29-10.32,4.71-18.07,4.8-2.77.09-4.37.09-7.92.09l-6.76.09c-16.68-.09-19.94-.27-24.12-1.42-10.24-3.29-12.21-8.88-9.21-26.47l4.96-31.89h18.03Z"/>
      <path class="cls-2" d="M1127.36,219.89h51.16c12.52,0,18.17,1.42,21.62,5.51,2.79,3.2,3.54,6.93,2.99,14.48-.25,2.75-.71,6.84-1.15,9.68-.83,5.33-2.13,11.46-3.19,14.83-2.08,7.11-7.91,12.61-14.59,13.86-3.49.71-6.18.89-12.48.89h-53.56l9.21-59.25ZM1168.58,265.02c4.88,0,5.24,0,7.48-.71,4.56-1.33,6.2-4.44,7.78-14.66,1.93-12.43.2-15.01-10.19-15.01h-30.56l-4.72,30.38h30.2Z"/>
      <polygon class="cls-2" points="1251.18 219.89 1269.22 219.89 1260.01 279.14 1241.98 279.14 1251.18 219.89"/>
      <path class="cls-2" d="M1379.23,220.16c8.89,1.69,12.6,6.39,12.36,15.9-.02,2.4-.59,7.19-1.71,14.39-2.22,14.3-4.63,20.07-10.34,24.25-4.02,3.02-9.22,4.44-17.89,4.8-3.22.18-11.14.27-16.92.27-14.12,0-21.28-.27-24.72-.98-6.39-1.16-9.83-3.64-11.37-7.99-1.63-4.35-1.49-8.7.53-21.67,1.55-9.95,2.11-12.44,3.79-16.43,2.67-6.31,6.66-9.68,13.62-11.64,5.2-1.42,10.67-1.78,26.3-1.78,17.05,0,22.27.18,26.33.89ZM1332.56,235.88c-2.69,1.87-3.85,4.8-5.18,13.32-1.35,8.7-1.14,11.9.79,13.77,2.09,1.95,4.97,2.31,18.56,2.31,15.55,0,18.83-.53,21.31-3.38,2.02-2.13,2.93-5.15,4.16-13.06,2.32-14.92,2.08-15.1-20.12-15.1-13.23,0-16.94.44-19.52,2.13Z"/>
      <g>
        <polygon class="cls-3" points="642.82 117.62 614.79 86.99 578.48 47.3 513.98 47.3 579.57 119.93 470.64 239 537.42 239 614.81 153.31 644.94 119.92 642.82 117.62"/>
        <polygon class="cls-3" points="654.84 122.05 630.78 148.7 622.16 158.25 652.35 191.7 718.6 191.7 713.32 185.93 654.84 122.05"/>
        <polygon class="cls-3" points="654.79 117.87 761.23 0 753.49 0 697.3 0 622.13 82.14 630.79 91.63 654.79 117.87"/>
      </g>
    </g>
  </g>
</svg>